<svg width="27" height="27" viewBox="0 0 27 27" fill="none" xmlns="http://www.w3.org/2000/svg">
<path d="M24.4475 8.09234C24.295 7.87933 24.0904 7.77282 23.8336 7.77282H7.48707L7.04341 6.61782C6.93107 6.23913 6.7786 5.91568 6.586 5.64744C6.39341 5.37921 6.18877 5.18987 5.9721 5.07942C5.75543 4.96897 5.56685 4.89403 5.40636 4.85458C5.24586 4.81513 5.08536 4.79541 4.92487 4.79541H1.62668C1.41803 4.79541 1.24149 4.86641 1.09704 5.00842C0.952594 5.15042 0.880371 5.33188 0.880371 5.55277C0.880371 5.679 0.91247 5.80128 0.976669 5.91962C1.04087 6.03796 1.13315 6.12869 1.25352 6.1918C1.3739 6.25491 1.49828 6.28647 1.62668 6.28647H4.92487C4.98907 6.28647 5.04925 6.29436 5.10543 6.31014C5.1616 6.32592 5.23784 6.39297 5.33413 6.51131C5.43043 6.62965 5.51068 6.80716 5.57488 7.04383L9.02783 16.5251C9.05993 16.6197 9.11209 16.7105 9.18432 16.7973C9.25654 16.884 9.3408 16.9511 9.4371 16.9984C9.53339 17.0458 9.63772 17.0694 9.75006 17.0694H20.1502C20.3107 17.0694 20.4592 17.0221 20.5956 16.9274C20.732 16.8328 20.8243 16.7144 20.8724 16.5724L24.5558 8.79053C24.6361 8.53808 24.5999 8.30534 24.4475 8.09234ZM19.6206 15.5547H10.3519L7.89634 9.28755H22.7262L19.6206 15.5547ZM18.2323 17.8908C17.7026 17.8908 17.2492 18.0762 16.8721 18.447C16.4949 18.8178 16.3063 19.2635 16.3063 19.7842C16.3063 20.3049 16.4949 20.7506 16.8721 21.1214C17.2492 21.4922 17.7026 21.6776 18.2323 21.6776C18.7619 21.6776 19.2153 21.4922 19.5925 21.1214C19.9696 20.7506 20.1582 20.3049 20.1582 19.7842C20.1582 19.2635 19.9696 18.8178 19.5925 18.447C19.2153 18.0762 18.7619 17.8908 18.2323 17.8908ZM11.2988 17.8908C10.9458 17.8908 10.6208 17.9776 10.3238 18.1511C10.0269 18.3247 9.7942 18.5535 9.62568 18.8375C9.45716 19.1215 9.3729 19.4371 9.3729 19.7842C9.3729 20.3049 9.56148 20.7506 9.93865 21.1214C10.3158 21.4922 10.7692 21.6776 11.2988 21.6776C11.8285 21.6776 12.2819 21.4922 12.6591 21.1214C13.0362 20.7506 13.2248 20.3049 13.2248 19.7842C13.2248 19.658 13.2128 19.5318 13.1887 19.4055C13.1646 19.2793 13.1285 19.161 13.0804 19.0505C13.0322 18.9401 12.972 18.8336 12.8998 18.731C12.8276 18.6284 12.7473 18.5338 12.6591 18.447C12.5708 18.3602 12.4745 18.2813 12.3702 18.2103C12.2658 18.1393 12.1575 18.0801 12.0452 18.0328C11.9328 17.9855 11.8124 17.95 11.684 17.9263C11.5556 17.9026 11.4272 17.8908 11.2988 17.8908Z" fill="white"/>
</svg>
