<svg width="20" height="20" viewBox="0 0 20 20" fill="none" xmlns="http://www.w3.org/2000/svg">
<path d="M10 10.833C11.3807 10.833 12.5 9.71372 12.5 8.33301C12.5 6.9523 11.3807 5.83301 10 5.83301C8.61929 5.83301 7.5 6.9523 7.5 8.33301C7.5 9.71372 8.61929 10.833 10 10.833Z" stroke="#3F4E65" stroke-width="1.3" stroke-linecap="round" stroke-linejoin="round"/>
<path d="M9.99992 1.6665C8.23181 1.6665 6.53612 2.36888 5.28587 3.61913C4.03563 4.86937 3.33325 6.56506 3.33325 8.33317C3.33325 9.90984 3.66825 10.9415 4.58325 12.0832L9.99992 18.3332L15.4166 12.0832C16.3316 10.9415 16.6666 9.90984 16.6666 8.33317C16.6666 6.56506 15.9642 4.86937 14.714 3.61913C13.4637 2.36888 11.768 1.6665 9.99992 1.6665V1.6665Z" stroke="#3F4E65" stroke-width="1.3" stroke-linecap="round" stroke-linejoin="round"/>
</svg>
